<?xml version="1.0" encoding="UTF-8" standalone="no"?>
<svg
   xmlns:dc="http://purl.org/dc/elements/1.1/"
   xmlns:cc="http://creativecommons.org/ns#"
   xmlns:rdf="http://www.w3.org/1999/02/22-rdf-syntax-ns#"
   xmlns:svg="http://www.w3.org/2000/svg"
   xmlns="http://www.w3.org/2000/svg"
   id="svg163"
   xml:space="preserve"
   viewBox="243 15.800000000000011 600 600"
   height="600"
   width="600"
   version="1.1"><metadata
   id="metadata167"><rdf:RDF><cc:Work
       rdf:about=""><dc:format>image/svg+xml</dc:format><dc:type
         rdf:resource="http://purl.org/dc/dcmitype/StillImage" /></cc:Work></rdf:RDF></metadata>
<desc
   id="desc2">Created by Logonomy.ir</desc>
<defs
   id="defs4">
</defs>


<g
   id="62761221-bbe5-4db8-ad50-0f7b9d2dced5"
   transform="matrix(1.94,0,0,1.94,543.38,228.47)">
<g
   id="g145"
   style="vector-effect:non-scaling-stroke">
		<g
   id="Ñëîé_1"
   transform="matrix(0.48,0,0,0.48,-26.34,-17.17)">
<path
   id="polygon6"
   d="M -13.27,7.66 V -7.65 L 0,-15.31 13.27,-7.65 V 7.66 L 0,15.31 Z"
   style="opacity:1;fill:#133c55;fill-rule:nonzero;stroke:none;stroke-width:1;stroke-linecap:butt;stroke-linejoin:miter;stroke-miterlimit:4;stroke-dasharray:none;stroke-dashoffset:0" />
</g>
		<g
   id="g11"
   transform="matrix(0.48,0,0,0.48,-14.51,33.89)">
<path
   id="polygon9"
   d="M -13.26,7.66 V -7.66 L 0,-15.31 13.26,-7.66 V 7.66 L 0,15.31 Z"
   style="opacity:1;fill:#133c55;fill-rule:nonzero;stroke:none;stroke-width:1;stroke-linecap:butt;stroke-linejoin:miter;stroke-miterlimit:4;stroke-dasharray:none;stroke-dashoffset:0" />
</g>
		<g
   id="g15"
   transform="matrix(0.48,0,0,0.48,17.05,-33.15)">
<path
   id="polygon13"
   d="M -9.79,5.65 V -5.65 L 0,-11.31 9.79,-5.65 V 5.65 L 0,11.3 Z"
   style="opacity:1;fill:#133c55;fill-rule:nonzero;stroke:none;stroke-width:1;stroke-linecap:butt;stroke-linejoin:miter;stroke-miterlimit:4;stroke-dasharray:none;stroke-dashoffset:0" />
</g>
		<g
   id="g19"
   transform="matrix(0.48,0,0,0.48,37.13,10.94)">
<path
   id="polygon17"
   d="M -9.79,5.66 V -5.66 L 0,-11.31 9.78,-5.66 V 5.66 L 0,11.31 Z"
   style="opacity:1;fill:#133c55;fill-rule:nonzero;stroke:none;stroke-width:1;stroke-linecap:butt;stroke-linejoin:miter;stroke-miterlimit:4;stroke-dasharray:none;stroke-dashoffset:0" />
</g>
		<g
   id="g23"
   transform="matrix(0.48,0,0,0.48,-59.53,7.58)">
<path
   id="polygon21"
   d="M -9.79,5.65 V -5.66 l 9.8,-5.64 9.78,5.64 V 5.65 l -9.78,5.66 z"
   style="opacity:1;fill:#133c55;fill-rule:nonzero;stroke:none;stroke-width:1;stroke-linecap:butt;stroke-linejoin:miter;stroke-miterlimit:4;stroke-dasharray:none;stroke-dashoffset:0" />
</g>
		<g
   id="g27"
   transform="matrix(0.48,0,0,0.48,46.62,-41.69)">
<path
   id="polygon25"
   d="M -9.79,5.66 V -5.65 L 0,-11.31 9.79,-5.65 V 5.66 L 0,11.3 Z"
   style="opacity:1;fill:#133c55;fill-rule:nonzero;stroke:none;stroke-width:1;stroke-linecap:butt;stroke-linejoin:miter;stroke-miterlimit:4;stroke-dasharray:none;stroke-dashoffset:0" />
</g>
		<g
   id="g31"
   transform="matrix(0.48,0,0,0.48,-22.69,-55.9)">
<path
   id="polygon29"
   d="M -9.79,5.66 V -5.64 L 0,-11.3 9.79,-5.64 V 5.66 L 0,11.3 Z"
   style="opacity:1;fill:#133c55;fill-rule:nonzero;stroke:none;stroke-width:1;stroke-linecap:butt;stroke-linejoin:miter;stroke-miterlimit:4;stroke-dasharray:none;stroke-dashoffset:0" />
</g>
		<g
   id="g35"
   transform="matrix(0.48,0,0,0.48,41.43,-20.87)">
<path
   id="polygon33"
   d="M -16.74,9.67 V -9.67 L 0,-19.33 16.74,-9.67 V 9.67 L 0,19.33 Z"
   style="opacity:1;fill:#133c55;fill-rule:nonzero;stroke:none;stroke-width:1;stroke-linecap:butt;stroke-linejoin:miter;stroke-miterlimit:4;stroke-dasharray:none;stroke-dashoffset:0" />
</g>
		<g
   id="g39"
   transform="matrix(0.48,0,0,0.48,0.12,34.84)">
<path
   id="polygon37"
   d="m -4.75,-75.28 h 9.5 L 1.25,75.27 Z"
   style="opacity:1;fill:#133c55;fill-rule:nonzero;stroke:none;stroke-width:1;stroke-linecap:butt;stroke-linejoin:miter;stroke-miterlimit:4;stroke-dasharray:none;stroke-dashoffset:0" />
</g>
		<g
   id="g43"
   transform="matrix(0.48,0,0,0.48,29.76,-16.04)">
<path
   id="polygon41"
   d="m -65.91,29.7 6,8 125.82,-75.4 z"
   style="opacity:1;fill:#133c55;fill-rule:nonzero;stroke:none;stroke-width:1;stroke-linecap:butt;stroke-linejoin:miter;stroke-miterlimit:4;stroke-dasharray:none;stroke-dashoffset:0" />
</g>
		<g
   id="g47"
   transform="matrix(0.48,0,0,0.48,-28.92,-16.04)">
<path
   id="polygon45"
   d="m 61.16,37.7 3.5,-8 -129.33,-67.4 z"
   style="opacity:1;fill:#133c55;fill-rule:nonzero;stroke:none;stroke-width:1;stroke-linecap:butt;stroke-linejoin:miter;stroke-miterlimit:4;stroke-dasharray:none;stroke-dashoffset:0" />
</g>
		<g
   id="g51"
   transform="matrix(0.48,0,0,0.48,31.22,-51.34)">
<path
   id="polygon49"
   d="M 58.97,37.51 62.91,35.14 -62.91,-37.51 Z"
   style="opacity:1;fill:#133c55;fill-rule:nonzero;stroke:none;stroke-width:1;stroke-linecap:butt;stroke-linejoin:miter;stroke-miterlimit:4;stroke-dasharray:none;stroke-dashoffset:0" />
</g>
		<g
   id="g55"
   transform="matrix(0.48,0,0,0.48,-29.77,-51.34)">
<path
   id="polygon53"
   d="M -58.38,37.51 62.91,-37.51 -62.92,35.14 Z"
   style="opacity:1;fill:#133c55;fill-rule:nonzero;stroke:none;stroke-width:1;stroke-linecap:butt;stroke-linejoin:miter;stroke-miterlimit:4;stroke-dasharray:none;stroke-dashoffset:0" />
</g>
		<g
   id="g59"
   transform="matrix(0.48,0,0,0.48,-29.77,53.72)">
<path
   id="polygon57"
   d="M 62.91,36.32 61.66,29.78 -62.92,-36.32 Z"
   style="opacity:1;fill:#133c55;fill-rule:nonzero;stroke:none;stroke-width:1;stroke-linecap:butt;stroke-linejoin:miter;stroke-miterlimit:4;stroke-dasharray:none;stroke-dashoffset:0" />
</g>
		<g
   id="g63"
   transform="matrix(0.48,0,0,0.48,30.91,53.72)">
<path
   id="polygon61"
   d="m -62.29,36.32 -1.25,-6.54 127.08,-66.1 z"
   style="opacity:1;fill:#133c55;fill-rule:nonzero;stroke:none;stroke-width:1;stroke-linecap:butt;stroke-linejoin:miter;stroke-miterlimit:4;stroke-dasharray:none;stroke-dashoffset:0" />
</g>
		<g
   id="g67"
   transform="matrix(0.48,0,0,0.48,46.06,21.04)">
<path
   id="polygon65"
   d="M -30.63,-33.8 27.1,33.8 30.63,31.1 Z"
   style="opacity:1;fill:#133c55;fill-rule:nonzero;stroke:none;stroke-width:1;stroke-linecap:butt;stroke-linejoin:miter;stroke-miterlimit:4;stroke-dasharray:none;stroke-dashoffset:0" />
</g>
		<g
   id="g71"
   transform="matrix(0.48,0,0,0.48,-0.77,-9.74)">
<path
   id="polygon69"
   d="M -68.41,87.37 68.41,-83.13 65.38,-87.37 Z"
   style="opacity:1;fill:#133c55;fill-rule:nonzero;stroke:none;stroke-width:1;stroke-linecap:butt;stroke-linejoin:miter;stroke-miterlimit:4;stroke-dasharray:none;stroke-dashoffset:0" />
</g>
		<g
   id="g75"
   transform="matrix(0.48,0,0,0.48,-59.53,10.43)">
<path
   id="polygon73"
   d="M -1.53,-54.61 1.53,54.61 -1.53,52.99 Z"
   style="opacity:1;fill:#133c55;fill-rule:nonzero;stroke:none;stroke-width:1;stroke-linecap:butt;stroke-linejoin:miter;stroke-miterlimit:4;stroke-dasharray:none;stroke-dashoffset:0" />
</g>
		<g
   id="g79"
   transform="matrix(0.48,0,0,0.48,-31.75,-13.28)">
<path
   id="polygon77"
   d="m -57.59,38.66 -1.24,6.68 117.66,-90.67 z"
   style="opacity:1;fill:#133c55;fill-rule:nonzero;stroke:none;stroke-width:1;stroke-linecap:butt;stroke-linejoin:miter;stroke-miterlimit:4;stroke-dasharray:none;stroke-dashoffset:0" />
</g>
		<g
   id="g83"
   transform="matrix(0.48,0,0,0.48,-18.96,7.58)">
<path
   id="polygon81"
   d="M 28.48,119.19 17.05,117.92 -28.48,-119.19 Z"
   style="opacity:1;fill:#133c55;fill-rule:nonzero;stroke:none;stroke-width:1;stroke-linecap:butt;stroke-linejoin:miter;stroke-miterlimit:4;stroke-dasharray:none;stroke-dashoffset:0" />
</g>
		<g
   id="g87"
   transform="matrix(0.48,0,0,0.48,39,4.69)">
<path
   id="polygon85"
   d="m -19.06,99.12 38.12,-195.64 -4.5,-2.6 z"
   style="opacity:1;fill:#133c55;fill-rule:nonzero;stroke:none;stroke-width:1;stroke-linecap:butt;stroke-linejoin:miter;stroke-miterlimit:4;stroke-dasharray:none;stroke-dashoffset:0" />
</g>
		<g
   id="g91"
   transform="matrix(0.48,0,0,0.48,18.25,-32.82)">
<path
   id="polygon89"
   d="m 88.01,47.61 -169.62,-95.22 -6.4,1.82 z"
   style="opacity:1;fill:#133c55;fill-rule:nonzero;stroke:none;stroke-width:1;stroke-linecap:butt;stroke-linejoin:miter;stroke-miterlimit:4;stroke-dasharray:none;stroke-dashoffset:0" />
</g>
		<g
   id="g95"
   transform="matrix(0.48,0,0,0.48,-23.58,34.75)">
<path
   id="polygon93"
   d="M 74.15,-4.43 -72.63,4.43 -74.15,0.19 Z"
   style="opacity:1;fill:#133c55;fill-rule:nonzero;stroke:none;stroke-width:1;stroke-linecap:butt;stroke-linejoin:miter;stroke-miterlimit:4;stroke-dasharray:none;stroke-dashoffset:0" />
</g>
		<g
   id="g99"
   transform="matrix(0.48,0,0,0.48,60.75,-10.62)">
<path
   id="polygon97"
   d="M 1.97,48.87 -1.97,-46.5 1.97,-48.87 Z"
   style="opacity:1;fill:#133c55;fill-rule:nonzero;stroke:none;stroke-width:1;stroke-linecap:butt;stroke-linejoin:miter;stroke-miterlimit:4;stroke-dasharray:none;stroke-dashoffset:0" />
</g>
		<g
   id="g103"
   transform="matrix(0.48,0,0,0.48,10.5,0.49)">
<path
   id="polygon101"
   d="M -28.33,-116.33 28.34,116.33 H 23.31 Z"
   style="opacity:1;fill:#133c55;fill-rule:nonzero;stroke:none;stroke-width:1;stroke-linecap:butt;stroke-linejoin:miter;stroke-miterlimit:4;stroke-dasharray:none;stroke-dashoffset:0" />
</g>
		<g
   id="g107"
   transform="matrix(0.48,0,0,0.48,-26.51,-4.75)">
<path
   id="polygon105"
   d="M 44.06,-101.08 -40.63,101.08 -44.06,99.1 Z"
   style="opacity:1;fill:#133c55;fill-rule:nonzero;stroke:none;stroke-width:1;stroke-linecap:butt;stroke-linejoin:miter;stroke-miterlimit:4;stroke-dasharray:none;stroke-dashoffset:0" />
</g>
		<g
   id="g111"
   transform="matrix(0.48,0,0,0.48,-18.02,7.92)">
<path
   id="polygon109"
   d="m 87.16,38.27 -174.33,-72.5 v -4.03 z"
   style="opacity:1;fill:#133c55;fill-rule:nonzero;stroke:none;stroke-width:1;stroke-linecap:butt;stroke-linejoin:miter;stroke-miterlimit:4;stroke-dasharray:none;stroke-dashoffset:0" />
</g>
		<g
   id="g115"
   transform="matrix(0.48,0,0,0.48,0.82,-50.55)">
<path
   id="polygon113"
   d="m -48.5,12.4 91.78,-24.79 5.22,1.36 z"
   style="opacity:1;fill:#133c55;fill-rule:nonzero;stroke:none;stroke-width:1;stroke-linecap:butt;stroke-linejoin:miter;stroke-miterlimit:4;stroke-dasharray:none;stroke-dashoffset:0" />
</g>
		<g
   id="g119"
   transform="matrix(0.48,0,0,0.48,-58.79,34.84)">
<path
   id="polygon117"
   d="M -9.79,5.66 V -5.66 L 0,-11.31 9.79,-5.66 V 5.66 L 0,11.31 Z"
   style="opacity:1;fill:#133c55;fill-rule:nonzero;stroke:none;stroke-width:1;stroke-linecap:butt;stroke-linejoin:miter;stroke-miterlimit:4;stroke-dasharray:none;stroke-dashoffset:0" />
</g>
		<g
   id="g123"
   transform="matrix(0.48,0,0,0.48,59.02,36.12)">
<path
   id="polygon121"
   d="M -9.79,5.65 V -5.66 L 0,-11.31 9.79,-5.66 V 5.65 L 0,11.31 Z"
   style="opacity:1;fill:#133c55;fill-rule:nonzero;stroke:none;stroke-width:1;stroke-linecap:butt;stroke-linejoin:miter;stroke-miterlimit:4;stroke-dasharray:none;stroke-dashoffset:0" />
</g>
		<g
   id="g127"
   transform="matrix(0.48,0,0,0.48,-60.27,-33.16)">
<path
   id="polygon125"
   d="M -9.79,5.65 V -5.65 L 0,-11.3 9.79,-5.65 V 5.65 L 0,11.3 Z"
   style="opacity:1;fill:#133c55;fill-rule:nonzero;stroke:none;stroke-width:1;stroke-linecap:butt;stroke-linejoin:miter;stroke-miterlimit:4;stroke-dasharray:none;stroke-dashoffset:0" />
</g>
		<g
   id="g131"
   transform="matrix(0.48,0,0,0.48,0.7,67.58)">
<path
   id="polygon129"
   d="M -13.26,7.66 V -7.66 L 0,-15.31 13.26,-7.66 V 7.66 L 0,15.31 Z"
   style="opacity:1;fill:#133c55;fill-rule:nonzero;stroke:none;stroke-width:1;stroke-linecap:butt;stroke-linejoin:miter;stroke-miterlimit:4;stroke-dasharray:none;stroke-dashoffset:0" />
</g>
		<g
   id="g135"
   transform="matrix(0.48,0,0,0.48,60.75,-32.82)">
<path
   id="polygon133"
   d="M -9.79,5.66 V -5.65 L 0,-11.31 9.79,-5.65 V 5.66 L 0,11.3 Z"
   style="opacity:1;fill:#133c55;fill-rule:nonzero;stroke:none;stroke-width:1;stroke-linecap:butt;stroke-linejoin:miter;stroke-miterlimit:4;stroke-dasharray:none;stroke-dashoffset:0" />
</g>
		<g
   id="g139"
   transform="matrix(0.48,0,0,0.48,0.81,-69.52)">
<path
   id="polygon137"
   d="M -9.79,5.64 V -5.65 L 0,-11.3 9.79,-5.65 V 5.64 L 0,11.3 Z"
   style="opacity:1;fill:#133c55;fill-rule:nonzero;stroke:none;stroke-width:1;stroke-linecap:butt;stroke-linejoin:miter;stroke-miterlimit:4;stroke-dasharray:none;stroke-dashoffset:0" />
</g>
		<g
   id="g143"
   transform="matrix(0.48,0,0,0.48,0.12,-1.65)">
<path
   id="polygon141"
   d="M -16.75,9.66 V -9.66 L 0,-19.34 16.75,-9.66 V 9.66 L 0,19.34 Z"
   style="opacity:1;fill:#133c55;fill-rule:nonzero;stroke:none;stroke-width:1;stroke-linecap:butt;stroke-linejoin:miter;stroke-miterlimit:4;stroke-dasharray:none;stroke-dashoffset:0" />
</g>
</g>
</g>
<g
   id="9ff5925f-b6c7-43a8-8d96-cb4385610da1"
   transform="matrix(1.9,0,0,1.9,554.42,387.99)">
		<g
   id="text150"
   style="font-style:normal;font-weight:normal;font-size:32px;font-family:dcedc;white-space:pre;opacity:1;fill:#000000;fill-rule:nonzero;stroke:#ffffff;stroke-width:1;stroke-linecap:butt;stroke-linejoin:miter;stroke-miterlimit:4;stroke-dasharray:none;stroke-dashoffset:0;stroke-opacity:0"
   aria-label="داده پرداز سبز فرداد"><path
     id="path204"
     style=""
     d="m 79.003754,-1.1999998 q 1.125,0 2.15625,0.62499999 1.03125,0.625 1.78125,1.59375001 0.78125,0.96875 1.25,2.15625 0.46875,1.15625 0.46875,2.25 0,0.96875 -0.375,1.8125 -0.34375,0.8125 -1.0625,1.46875 -0.71875,0.625 -1.78125,1 -1.03125,0.3437498 -2.375,0.3437498 -0.8125,0 -1.59375,-0.1562498 -0.75,-0.15625 -1.4375,-0.4375 -0.6875,-0.3125 -1.25,-0.75 -0.53125,-0.4375 -0.875,-1.0625 l 2.6875,-1.5625 q 0.25,0.40625 0.90625,0.65625 0.6875,0.21875 1.46875,0.21875 0.5,0 0.96875,-0.0625 0.46875,-0.09375 0.8125,-0.28125 0.375,-0.1875 0.59375,-0.46875 0.21875,-0.3125 0.21875,-0.78125 -0.0625,-0.53125 -0.3125,-1.125 -0.25,-0.625 -0.625,-1.125 -0.34375,-0.53125 -0.78125,-0.84375 -0.4375,-0.34375 -0.84375,-0.34375 z" /><path
     id="path206"
     style=""
     d="M 73.035004,-5.5749998 V 10.05 h -3.09375 V -5.5749998 Z" /><path
     id="path208"
     style=""
     d="m 63.191254,-1.1999998 q 1.125,0 2.15625,0.62499999 1.03125,0.625 1.78125,1.59375001 0.78125,0.96875 1.25,2.15625 0.46875,1.15625 0.46875,2.25 0,0.96875 -0.375,1.8125 -0.34375,0.8125 -1.0625,1.46875 -0.71875,0.625 -1.78125,1 -1.03125,0.3437498 -2.375,0.3437498 -0.8125,0 -1.59375,-0.1562498 -0.75,-0.15625 -1.4375,-0.4375 -0.6875,-0.3125 -1.25,-0.75 -0.53125,-0.4375 -0.875,-1.0625 l 2.6875,-1.5625 q 0.25,0.40625 0.90625,0.65625 0.6875,0.21875 1.46875,0.21875 0.5,0 0.96875,-0.0625 0.46875,-0.09375 0.8125,-0.28125 0.375,-0.1875 0.59375,-0.46875 0.21875,-0.3125 0.21875,-0.78125 -0.0625,-0.53125 -0.3125,-1.125 -0.25,-0.625 -0.625,-1.125 -0.34375,-0.53125 -0.78125,-0.84375 -0.4375,-0.34375 -0.84375,-0.34375 z" /><path
     id="path210"
     style=""
     d="m 51.597504,10.05 q -1.1875,0 -2.21875,-0.3124998 -1.03125,-0.34375 -1.8125,-0.90625 -0.75,-0.59375 -1.1875,-1.4375 -0.40625,-0.84375 -0.40625,-1.90625 0,-1.15625 0.46875,-2.34375 0.46875,-1.1875 1.25,-2.15625001 0.78125,-0.96875 1.8125,-1.5625 1.03125,-0.62499999 2.09375,-0.62499999 1.09375,0 2.125,0.62499999 1.03125,0.59375 1.8125,1.5625 0.78125,0.96875001 1.25,2.15625001 0.46875,1.1875 0.46875,2.34375 0,1.0625 -0.4375,1.90625 -0.40625,0.84375 -1.1875,1.4375 -0.75,0.5625 -1.78125,0.90625 Q 52.816254,10.05 51.597504,10.05 Z m 0.59375,-7.9374998 q -0.3125,-0.1875 -0.59375,-0.1875 -0.46875,0 -0.90625,0.40625 -0.4375,0.375 -0.8125,0.9375 -0.375,0.5625 -0.59375,1.21875 -0.21875,0.625 -0.21875,1.125 0.03125,0.40625 0.28125,0.65625 0.25,0.25 0.59375,0.40625 0.375,0.15625 0.8125,0.21875 0.4375,0.0625 0.84375,0.0625 1.0625,0 1.8125,-0.34375 0.75,-0.375 0.75,-1.125 0,-0.4375 -0.15625,-0.9375 -0.15625,-0.5 -0.4375,-0.96875 -0.28125,-0.46875 -0.65625,-0.84375 -0.34375,-0.40625 -0.71875,-0.625 z" /><path
     id="path212"
     style=""
     d="m 39.316254,6.3312502 q -0.0625,0.875 -0.46875,1.53125 -0.375,0.65625 -0.9375,1.1875 -0.6875,0.53125 -1.5,0.78125 Q 35.691254,10.05 35.035004,10.05 h -1.59375 V 6.9562502 h 1.53125 q 0.1875,0 0.375,-0.03125 0.1875,-0.0625 0.375,-0.15625 0.1875,-0.09375 0.3125,-0.25 0.125,-0.15625 0.125,-0.40625 l 0.03125,-4.03125 h 3.125 z M 33.378754,11.175 h 3.09375 v 2.96875 h -3.09375 z m 3.75,0 h 3.125 v 2.96875 h -3.125 z m -1.875,3.46875 h 3.125 v 2.96875 h -3.125 z" /><path
     id="path214"
     style=""
     d="m 27.691254,12.3 q 0.21875,0.15625 0.5,0.15625 0.4375,0 0.71875,-0.40625 0.28125,-0.40625 0.28125,-1.21875 V 2.2375002 h 3.09375 v 3.65625 q 0,0.40625 0.09375,0.625 0.125,0.1875 0.28125,0.3125 0.15625,0.09375 0.3125,0.125 0.15625,0 0.28125,0 h 0.3125 V 10.05 h -0.40625 q -0.21875,0 -0.4375,-0.03125 -0.21875,-0.0625 -0.4375,-0.1249998 V 10.83125 q 0,1.15625 -0.34375,2.03125 -0.34375,0.875 -0.9375,1.46875 -0.5625,0.625 -1.3125,0.9375 -0.71875,0.3125 -1.5,0.3125 -1.21875,0 -2.34375,-0.78125 z" /><path
     id="path216"
     style=""
     d="m 20.316254,-1.1999998 q 1.125,0 2.15625,0.62499999 1.03125,0.625 1.78125,1.59375001 0.78125,0.96875 1.25,2.15625 0.46875,1.15625 0.46875,2.25 0,0.96875 -0.375,1.8125 -0.34375,0.8125 -1.0625,1.46875 -0.71875,0.625 -1.78125,1 -1.03125,0.3437498 -2.375,0.3437498 -0.8125,0 -1.59375,-0.1562498 -0.75,-0.15625 -1.4375,-0.4375 -0.6875,-0.3125 -1.25,-0.75 -0.53125,-0.4375 -0.875,-1.0625 l 2.6875,-1.5625 q 0.25,0.40625 0.90625,0.65625 0.6875,0.21875 1.46875,0.21875 0.5,0 0.96875,-0.0625 0.46875,-0.09375 0.8125,-0.28125 0.375,-0.1875 0.59375,-0.46875 0.21875,-0.3125 0.21875,-0.78125 -0.0625,-0.53125 -0.3125,-1.125 -0.25,-0.625 -0.625,-1.125 -0.34375,-0.53125 -0.78125,-0.84375 -0.4375,-0.34375 -0.84375,-0.34375 z" /><path
     id="path218"
     style=""
     d="M 14.347504,-5.5749998 V 10.05 h -3.09375 V -5.5749998 Z" /><path
     id="path220"
     style=""
     d="M 7.0350037,0.76875019 V -2.1374998 H 10.128754 V 0.76875019 Z M 5.6287537,12.3 q 0.21875,0.15625 0.5,0.15625 0.5,0 0.75,-0.4375 0.25,-0.4375 0.25,-1.1875 V 2.2375002 H 10.222504 V 10.83125 q 0,1.15625 -0.3750003,2.03125 -0.34375,0.90625 -0.9375,1.5 -0.5625,0.59375 -1.3125,0.90625 -0.71875,0.3125 -1.46875,0.3125 -1.21875,0 -2.34375,-0.78125 z" /><path
     id="path222"
     style=""
     d="m -14.214996,9.0187502 q -0.53125,0.53125 -1.40625,0.78125 Q -16.464996,10.05 -17.277496,10.05 V 6.9562502 q 0.8125,0 1.1875,-0.46875 0.40625,-0.46875 0.40625,-1.1875 V 0.48750019 h 3.125 V 5.3000002 q 0,0.8125 0.28125,1.25 0.28125,0.4375 0.71875,0.4375 0.34375,0 0.71875,-0.40625 0.375,-0.4375 0.375,-1.28125 V 0.48750019 h 3.0937497 V 5.3000002 q 0,0.8125 0.34375,1.25 0.34375,0.40625 0.78125,0.40625 0.34375,0 0.65625,-0.34375 0.3125,-0.375 0.3125,-1.3125 V 0.48750019 h 3.09375 V 5.3000002 q 0,1.21875 -0.34375,2.09375 -0.34375,0.875 -0.9375,1.46875 -0.5625,0.59375 -1.3125,0.90625 -0.71875,0.2812498 -1.5,0.2812498 -0.71875,0 -1.40625,-0.2812498 -0.6875,-0.28125 -1.25,-0.75 Q -10.152496,10.05 -11.652496,10.05 q -0.65625,0 -1.34375,-0.2499998 -0.6875,-0.28125 -1.21875,-0.78125 z" /><path
     id="path224"
     style=""
     d="m -17.152496,10.05 q -0.71875,0 -1.4375,-0.2499998 -0.71875,-0.25 -1.3125,-0.78125 l -0.03125,0.03125 q -0.59375,0.53125 -1.3125,0.75 -0.625,0.2499998 -1.3125,0.2499998 h -1.96875 V 6.9562502 h 1.9375 q 0.375,0 0.625,-0.25 0.34375,-0.28125 0.53125,-0.9375 v -3.6875 h 3.09375 v 3.21875 q 0,0.84375 0.40625,1.28125 0.125,0.1875 0.34375,0.28125 0.25,0.09375 0.4375,0.09375 z m -2.71875,4.125 h -3.09375 v -2.9375 h 3.09375 z" /><path
     id="path226"
     style=""
     d="M -28.839996,0.76875019 V -2.1374998 h 3.09375 V 0.76875019 Z M -30.246246,12.3 q 0.21875,0.15625 0.5,0.15625 0.4375,0 0.71875,-0.40625 0.28125,-0.40625 0.28125,-1.21875 V 2.2375002 h 3.09375 v 3.65625 q 0,0.40625 0.09375,0.625 0.125,0.1875 0.28125,0.3125 0.15625,0.09375 0.3125,0.125 0.15625,0 0.28125,0 h 0.3125 V 10.05 h -0.40625 q -0.21875,0 -0.4375,-0.03125 -0.21875,-0.0625 -0.4375,-0.1249998 V 10.83125 q 0,1.15625 -0.34375,2.03125 -0.34375,0.875 -0.9375,1.46875 -0.5625,0.625 -1.3125,0.9375 -0.71875,0.3125 -1.5,0.3125 -1.21875,0 -2.34375,-0.78125 z" /><path
     id="path228"
     style=""
     d="m -45.589996,-5.1374998 v -2.9375 h 3.09375 v 2.9375 z m 6.90625,6.375 q 0.40625,1.0625 0.5625,2.125 0.0625,0.5 0.0625,0.96875 0,0.5625 -0.09375,1.09375 -0.15625,1 -0.625,1.84375 -0.4375,0.84375 -1.21875,1.46875 -0.75,0.625 -1.8125,0.96875 Q -42.839996,10.05 -44.152496,10.05 h -6.375 V 6.9562502 h 3.03125 q -0.1875,-0.1875 -0.46875,-0.34375 -0.25,-0.1875 -0.46875,-0.375 -0.625,-0.625 -0.90625,-1.34375 -0.28125,-0.75 -0.28125,-1.625 0,-0.53125 0.09375,-1.03125 0.1875,-1.03125 0.6875,-2.06250001 0.53125,-1.03125 1.28125,-1.81249999 0.75,-0.8125 1.65625,-1.28125 0.9375,-0.5 1.9375,-0.5 0.84375,0 1.625,0.40625 0.8125,0.375 1.5,1.03125 0.6875,0.625 1.21875,1.46874999 0.5625,0.84375 0.9375,1.75000001 z m -4.1875,-0.96875001 q -0.28125,-0.28125 -0.59375,-0.4375 -0.28125,-0.15625 -0.5,-0.15625 -0.40625,0 -0.875,0.375 -0.4375,0.34375 -0.8125,0.875 -0.375,0.53125001 -0.625,1.15625001 -0.25,0.625 -0.25,1.125 0,0.40625 0.21875,0.71875 0.21875,0.28125 0.5625,0.46875 0.34375,0.15625 0.78125,0.25 0.46875,0.0625 0.9375,0.0625 1.15625,0 1.875,-0.34375 0.71875,-0.375 0.71875,-1.15625 0,-0.34375 -0.125,-0.75 -0.125,-0.40625 -0.3125,-0.78125 -0.1875,-0.40625 -0.46875,-0.75000001 -0.25,-0.375 -0.53125,-0.65625 z" /><path
     id="path230"
     style=""
     d="m -56.246246,12.3 q 0.21875,0.15625 0.5,0.15625 0.4375,0 0.71875,-0.40625 0.28125,-0.40625 0.28125,-1.21875 V 2.2375002 h 3.09375 v 3.65625 q 0,0.40625 0.09375,0.625 0.125,0.1875 0.28125,0.3125 0.15625,0.09375 0.3125,0.125 0.15625,0 0.28125,0 h 0.3125 V 10.05 h -0.40625 q -0.21875,0 -0.4375,-0.03125 -0.21875,-0.0625 -0.4375,-0.1249998 V 10.83125 q 0,1.15625 -0.34375,2.03125 -0.34375,0.875 -0.9375,1.46875 -0.5625,0.625 -1.3125,0.9375 -0.71875,0.3125 -1.5,0.3125 -1.21875,0 -2.34375,-0.78125 z" /><path
     id="path232"
     style=""
     d="m -63.621246,-1.1999998 q 1.125,0 2.15625,0.62499999 1.03125,0.625 1.78125,1.59375001 0.78125,0.96875 1.25,2.15625 0.46875,1.15625 0.46875,2.25 0,0.96875 -0.375,1.8125 -0.34375,0.8125 -1.0625,1.46875 -0.71875,0.625 -1.78125,1 -1.03125,0.3437498 -2.375,0.3437498 -0.8125,0 -1.59375,-0.1562498 -0.75,-0.15625 -1.4375,-0.4375 -0.6875,-0.3125 -1.25,-0.75 -0.53125,-0.4375 -0.875,-1.0625 l 2.6875,-1.5625 q 0.25,0.40625 0.90625,0.65625 0.6875,0.21875 1.46875,0.21875 0.5,0 0.96875,-0.0625 0.46875,-0.09375 0.8125,-0.28125 0.375,-0.1875 0.59375,-0.46875 0.21875,-0.3125 0.21875,-0.78125 -0.0625,-0.53125 -0.3125,-1.125 -0.25,-0.625 -0.625,-1.125 -0.34375,-0.53125 -0.78125,-0.84375 -0.4375,-0.34375 -0.84375,-0.34375 z" /><path
     id="path234"
     style=""
     d="M -69.589996,-5.5749998 V 10.05 h -3.09375 V -5.5749998 Z" /><path
     id="path236"
     style=""
     d="m -79.433746,-1.1999998 q 1.125,0 2.15625,0.62499999 1.03125,0.625 1.78125,1.59375001 0.78125,0.96875 1.25,2.15625 0.46875,1.15625 0.46875,2.25 0,0.96875 -0.375,1.8125 -0.34375,0.8125 -1.0625,1.46875 -0.71875,0.625 -1.78125,1 -1.03125,0.3437498 -2.375,0.3437498 -0.8125,0 -1.59375,-0.1562498 -0.75,-0.15625 -1.4375,-0.4375 -0.6875,-0.3125 -1.25,-0.75 -0.53125,-0.4375 -0.875,-1.0625 l 2.6875,-1.5625 q 0.25,0.40625 0.90625,0.65625 0.6875,0.21875 1.46875,0.21875 0.5,0 0.96875,-0.0625 0.46875,-0.09375 0.8125,-0.28125 0.375,-0.1875 0.59375,-0.46875 0.21875,-0.3125 0.21875,-0.78125 -0.0625,-0.53125 -0.3125,-1.125 -0.25,-0.625 -0.625,-1.125 -0.34375,-0.53125 -0.78125,-0.84375 -0.4375,-0.34375 -0.84375,-0.34375 z" /></g>
</g>
<g
   id="79f20020-eaf4-4e2d-9bc8-158871e59263"
   transform="matrix(0.89,0,0,0.89,554.71,429.12)">
		<g
   id="text155"
   style="font-style:normal;font-weight:normal;font-size:32px;font-family:cfbaf;white-space:pre;opacity:1;fill:#692020;fill-rule:nonzero;stroke:#ffffff;stroke-width:1;stroke-linecap:butt;stroke-linejoin:miter;stroke-miterlimit:4;stroke-dasharray:none;stroke-dashoffset:0;stroke-opacity:0"
   aria-label="   با مسئوليت محدود"><path
     id="path239"
     style="white-space:pre"
     d="m 96.935623,4.9250002 q 0,0.984375 -0.328125,2.359375 -0.34375,1.484375 -0.8125,2.21875 Q 94.763748,10.05 93.748123,10.05 H 93.169998 V 7.8468752 q 0.390625,0.015625 0.75,0.015625 2.03125,0 2.21875,-0.625 -0.140625,-1.328125 -0.5625,-2.171875 -0.3125,-0.640625 -1.25,-1.828125 0.3125,-1.265625 0.796875,-1.859375 0.71875,0.34375 1.28125,1.546875 0.53125,1.125 0.53125,2 z m -0.09375,9.1562498 -1.109375,1.828125 -2.078125,-1.21875 1.140625,-1.796875 z" /><path
     id="path241"
     style="white-space:pre"
     d="m 93.435623,10.05 h -0.671875 q -1.203125,0 -2.203125,-0.6874998 -1.0625,-0.71875 -1.375,-1.84375 -0.25,-0.890625 -0.25,-3.390625 0,-3.68750001 -0.90625,-5.890625 l 0.734375,-1.5 q 0.625,1.609375 0.78125,4.23437499 0.21875,3.87500001 0.28125,4.31250001 0.171875,1.234375 1.296875,1.9375 0.984375,0.625 2.3125,0.625 z" /><path
     id="path243"
     style="white-space:pre"
     d="m 79.076248,7.3156252 q 0,0.34375 -0.484375,1.390625 -0.453125,0.984375 -0.734375,1.3124998 -0.109375,0.125 -0.375,0.125 -0.796875,0 -3.109375,-0.8593748 l -3.265625,-1.1875 q -0.625,1.171875 -1.0625,1.515625 Q 69.466873,10.065625 68.263748,10.05 V 7.8468752 q 1.609375,0 2.796875,-1.484375 0.65625,-0.9375 2.03125,-2.765625 1.15625,-1.484375 2.6875,-1.484375 0.84375,0 2.109375,2.1875 1.1875,2.0625 1.1875,3.015625 z m -2.015625,-0.375 q -0.265625,-0.828125 -1.046875,-1.546875 -0.78125,-0.734375 -1.609375,-0.875 -1.3125,0.65625 -1.765625,1.3125 2.515625,1.140625 4.203125,1.6875 l 0.15625,-0.25 z" /><path
     id="path245"
     style="white-space:pre"
     d="m 68.529373,10.05 h -1.1875 q -0.84375,0 -1.359375,-0.4687498 -0.375,-0.34375 -0.84375,-1.234375 L 64.373123,11.64375 q -0.4375,-0.25 -1.59375,-2.6562498 -1.203125,1.0312498 -4.875,1.0312498 -0.203125,0 -0.828125,-0.03125 l -0.390625,-0.515625 q -1.140625,0.6249998 -2.84375,0.5937498 L 52.951248,10.05 V 7.8468752 l 1.140625,0.015625 q 2.65625,0.03125 3.671875,-0.84375 0.71875,-0.609375 1.9375,-3.34375 l 0.21875,0.109375 q -1.34375,3.640625 -1.34375,3.875 v 0.046875 l 0.09375,0.109375 h 0.515625 q 3.09375,0 4,-1.0625 l 0.875,-2.875 0.25,0.15625 q -0.453125,1.59375 -0.796875,3.421875 0.546875,1.09375 1.015625,1.5 0.203125,-0.21875 1.375,-4.671875 l 0.203125,0.140625 -0.515625,2.359375 q 0.359375,1.0625 2.9375,1.0625 z" /><path
     id="path247"
     style="white-space:pre"
     d="m 51.716873,0.03437519 q 0,1.15625001 -2.140625,1.73437501 -0.90625,-0.109375 -1.21875,-0.109375 -0.203125,0 -0.609375,0.203125 l -0.1875,0.25 -0.203125,-0.3125 q 0.34375,-0.484375 1.265625,-0.65625 1.0625,-0.20312501 1.390625,-0.46875001 l 0.109375,-0.21875 q -0.01563,-0.0625 -0.640625,-0.40625 -0.609375,-0.34375 -0.609375,-0.75 0,-0.70312499 0.640625,-1.49999999 0.65625,-0.796875 1.34375,-0.8125 l -0.09375,0.9375 q -0.796875,0.15625 -0.96875,0.734375 0.140625,0.140625 1.15625,0.53124999 0.765625,0.296875 0.765625,0.84375 z M 53.091873,10.05 h -0.921875 q -1.90625,0 -2.953125,-1.8281248 Q 48.107498,10.05 45.638748,10.05 V 7.8468752 q 3.03125,0 3.640625,-1.375 l 0.875,-1.953125 0.1875,0.15625 q -0.296875,0.828125 -0.359375,1.625 0.484375,0.96875 1.296875,1.296875 0.609375,0.25 1.8125,0.25 z" /><path
     id="path249"
     style="white-space:pre"
     d="m 46.044998,10.08125 h -1.984375 q -0.96875,2.984375 -4.671875,5.34375 -0.671875,0.421875 -1.890625,1 -1.578125,-0.390625 -3.40625,-1.375 -1.078125,-0.59375 -3.21875,-1.796875 l 0.09375,-0.15625 q 3.40625,1.53125 5.09375,1.53125 1.5,0 3.890625,-1.609375 2.40625,-1.609375 2.984375,-3 -3.609375,0 -3.609375,-2.5624998 0,-1.46875 0.78125,-2.9375 0.921875,-1.734375 2.25,-1.734375 1.03125,0 1.734375,1.671875 0.59375,1.421875 0.59375,2.8125 0,0.359375 -0.04687,0.578125 h 1.40625 z m -2.59375,-2.6562498 q 0,-0.8125 -0.546875,-1.625 -0.59375,-0.875 -1.375,-0.875 -0.515625,0 -0.890625,0.421875 -0.359375,0.421875 -0.359375,0.953125 0,0.640625 1.296875,1.09375 0.875,0.3125 1.84375,0.421875 0.03125,-0.171875 0.03125,-0.390625 z" /><path
     id="path251"
     style="white-space:pre"
     d="m 32.732498,-0.85624981 -0.515625,2.01562501 -0.40625,-0.09375 -0.171875,0.3125 0.46875,2.640625 q 0.28125,1.59375 0.28125,2.671875 0,0.71875 -0.34375,1.734375 -0.375,1.125 -0.84375,1.5 Q 30.732498,10.05 30.169998,10.05 h -1.46875 V 7.8468752 q 0.234375,0 0.6875,0.03125 0.453125,0.015625 0.6875,0.015625 1.4375,0 1.734375,-0.40625 -0.15625,-0.828125 -0.484375,-3 -0.109375,-1 -0.453125,-3.59375001 -1.625,-1.28125 -1.625,-1.890625 0,-1.31249999 0.953125,-3.03124999 l 0.1875,0.0625 q -0.25,0.546875 -0.25,1.140625 0,0.734375 0.96875,1.28125 0.265625,0.15625 1.625,0.68749999 z" /><path
     id="path253"
     style="white-space:pre"
     d="m 29.310623,10.05 h -0.96875 q -1.90625,0 -2.9375,-1.8281248 Q 24.294998,10.05 21.810623,10.05 V 7.8468752 q 3.046875,0 3.6875,-1.375 0.21875,-0.546875 0.828125,-1.953125 l 0.1875,0.15625 q -0.328125,0.921875 -0.3125,1.625 0.421875,0.984375 1.265625,1.3125 0.59375,0.234375 1.84375,0.234375 z m -0.359375,3.640625 -1.15625,1.796875 -2.078125,-1.21875 1.1875,-1.75 z m -3.078125,0 -1.140625,1.796875 -2.078125,-1.21875 1.203125,-1.75 z" /><path
     id="path255"
     style="white-space:pre"
     d="M 12.294998,-0.48124981 11.107498,1.3781252 9.0293732,0.15937519 10.201248,-1.6374998 Z m -3.1093748,0 -1.15625,1.85937501 -2.078125,-1.21875001 1.1875,-1.79687499 z M 22.341873,10.05 h -0.671875 q -1.09375,0 -1.75,-0.4531248 -0.515625,-0.359375 -1.203125,-1.375 -1.265625,1.453125 -3.90625,1.9062498 -0.421875,0.07813 -4.46875,0.34375 -3.2499998,0.21875 -2.8906248,0.21875 -4.734375,0 -7.04687503,-0.7343748 -3.99999997,-1.265625 -3.99999997,-4.953125 0,-1.734375 0.71875,-2.890625 l 0.25,0.09375 q -0.453125,1.34375 -0.453125,1.875 0,4.296875 9.546875,4.296875 11.3437498,0 12.3124998,-1.90625 0.234375,-0.546875 0.875,-1.953125 l 0.1875,0.15625 q -0.375,0.796875 -0.359375,1.625 0.765625,1.5625 2.859375,1.546875 z" /><path
     id="path257"
     style="white-space:pre"
     d="m -11.548752,7.3156252 q 0,0.34375 -0.484375,1.390625 -0.453125,0.984375 -0.734375,1.3124998 -0.109375,0.125 -0.375,0.125 -0.796875,0 -3.109375,-0.8593748 l -3.265625,-1.1875 q -0.625,1.171875 -1.0625,1.515625 -0.578125,0.4531248 -1.78125,0.4374998 V 7.8468752 q 1.609375,0 2.796875,-1.484375 0.65625,-0.9375 2.03125,-2.765625 1.15625,-1.484375 2.6875,-1.484375 0.84375,0 2.109375,2.1875 1.1875,2.0625 1.1875,3.015625 z m -2.015625,-0.375 q -0.265625,-0.828125 -1.046875,-1.546875 -0.78125,-0.734375 -1.609375,-0.875 -1.3125,0.65625 -1.765625,1.3125 2.515625,1.140625 4.203125,1.6875 l 0.15625,-0.25 z" /><path
     id="path259"
     style="white-space:pre"
     d="m -22.158127,10.05 h -1.625 q -3.140625,0 -3.109375,-3.1718748 -1.515625,0.203125 -4.828125,1.765625 Q -34.705002,10.05 -36.611252,10.05 h -2.53125 V 7.8468752 h 2.015625 q 1.375,0 3.765625,-0.5625 2.84375,-0.671875 3.203125,-1.453125 -2.453125,-1.34375 -4.671875,-1.34375 -2.5,0 -4,2.515625 l -0.21875,-0.09375 q 1.9375,-4.515625 5.109375,-4.515625 1.515625,0 3.640625,0.71875 l 3.53125,1.171875 q 1.390625,0.359375 4.421875,0.390625 l -0.859375,2.140625 q -1,-0.09375 -1.375,-0.09375 -0.04687,0 -0.609375,0.03125 -0.34375,0.015625 -0.609375,0 0.34375,1.109375 2.953125,1.109375 0.328125,0 0.6875,-0.015625 z" /><path
     id="path261"
     style="white-space:pre"
     d="m -38.751877,10.05 h -1.1875 q -0.859375,0 -1.640625,-0.7499998 -0.46875,-0.453125 -1.09375,-1.421875 -0.53125,-0.8125 -0.6875,-0.875 l -0.234375,0.109375 q -0.9375,1.375 -2.78125,2.265625 -1.78125,0.8906248 -3.484375,0.8906248 -1.6875,0 -2.5625,-1.1874998 -0.78125,-1.0625 -0.78125,-2.8125 0,-2.3125 1.171875,-4.890625 l 0.15625,0.1875 q -0.765625,1.578125 -0.765625,3.71875 0,1.265625 1.140625,1.953125 0.953125,0.578125 2.3125,0.578125 1.515625,0 3.03125,-0.75 1.46875,-0.71875 2.46875,-1.90625 l 0.03125,-0.203125 q 0,-4.53125001 -0.46875,-6.171875 0.15625,-0.578125 0.796875,-1.796875 0.21875,0.265625 0.265625,3.23437499 0.04687,3.37500001 0.578125,5.01562501 0.84375,2.609375 3.0625,2.609375 h 0.671875 z" /><path
     id="path263"
     style="white-space:pre"
     d="m -55.486252,6.6593752 q 0,5.0468748 -3.828125,7.9374998 -1.71875,1.296875 -3.171875,1.828125 -1.734375,-0.53125 -5.34375,-2.921875 l 0.09375,-0.15625 q 2.796875,1.28125 3.640625,1.28125 1.953125,0 4.78125,-2.1875 2.96875,-2.296875 2.96875,-4.1562498 0,-0.578125 -0.515625,-1.046875 -0.5625,1.15625 -0.875,1.484375 -0.5625,0.59375 -1.578125,0.59375 -2.375,0 -2.375,-2.28125 0,-1.109375 0.890625,-3.109375 1,-2.234375 1.953125,-2.234375 0.71875,0 1.453125,0.75 1.90625,1.953125 1.90625,4.21875 z m -1.78125,-0.328125 v -0.25 q -1.21875,-1.65625 -2.34375,-1.65625 -0.453125,0 -0.765625,0.375 -0.3125,0.359375 -0.3125,0.828125 0,0.484375 0.78125,0.78125 0.59375,0.21875 1.203125,0.21875 0.671875,0 1.4375,-0.296875 z" /><path
     id="path265"
     style="white-space:pre"
     d="m -66.705002,7.3000002 q 0,0.21875 -0.28125,1.125 -0.140625,0.4375 -0.484375,1.046875 -0.71875,0.7343748 -3.453125,0.7343748 -1.828125,0 -2.640625,-0.3124998 -1.359375,-0.515625 -1.359375,-2.015625 0,-0.875 0.453125,-2.078125 l 0.15625,0.03125 q -0.09375,0.46875 -0.09375,0.796875 0,0.5 0.21875,0.6875 0.07813,0.0625 0.765625,0.359375 1.140625,0.484375 2.953125,0.484375 1,0 2.578125,-0.3125 -1.328125,-4.765625 -3.828125,-4.765625 -0.5625,0 -0.96875,0.125 -0.07813,-0.265625 -0.07813,-0.84375 0,-0.546875 0.5625,-1.34375 0.28125,-0.12500001 0.734375,-0.12500001 1.96875,0 3.359375,2.25000001 1.109375,1.796875 1.40625,4.0625 z" /></g>
</g>
<g
   id="e1a34250-fdb4-4115-a437-1e827207c9bf"
   transform="matrix(0.83,0,0,0.83,569.12,461.35)">
		<g
   id="text160"
   style="font-style:normal;font-weight:normal;font-size:32px;;white-space:pre;opacity:1;fill:#8b572a;fill-rule:nonzero;stroke:#ffffff;stroke-width:1;stroke-linecap:butt;stroke-linejoin:miter;stroke-miterlimit:4;stroke-dasharray:none;stroke-dashoffset:0;stroke-opacity:0"
   aria-label="579723شماره ثبت"><path
     id="path268"
     style=""
     d="m -73.643127,6.0812502 0.109375,-0.90625 q 0.15625,-1.34375 0.15625,-2.46875 0,-2.76562501 -0.796875,-5.203125 -0.3125,-0.953125 -0.8125,-1.78125 -0.40625,-0.6875 -1.234375,-1.765625 -0.484375,-0.625 -1.0625,-0.625 -1.265625,0 -2.578125,2.84375 -0.828125,1.8125 -1.375,3.95312499 -0.828125,3.21875001 -0.71875,4.75000001 l 0.1875,2.703125 q 0.171875,2.5468748 3.421875,2.5468748 0.671875,0 1.28125,-0.109375 1.5,-0.2812498 2.453125,-1.3593748 0.96875,-1.078125 0.96875,-2.578125 z m -1.5,-1.859375 q -0.921875,1.203125 -2.21875,1.328125 -0.171875,0.03125 -0.609375,0.03125 -1.046875,0 -1.921875,-0.609375 l -0.09375,-0.34375 q -0.109375,-0.328125 -0.109375,-0.90625 0,-2.1875 1.640625,-4.51562501 0.578125,-0.82812499 0.796875,-0.79687499 0.453125,0.0625 1.1875,1.24999999 0.53125,0.859375 0.828125,1.60937501 0.5625,1.40625 0.53125,2.296875 z" /><path
     id="path270"
     style=""
     d="m -65.705627,10.190625 0.453125,-1.5468748 q 0.53125,-1.765625 0.984375,-3.09375 1,-3.046875 2.421875,-5.59375001 0.53125,-0.921875 1.125,-1.71874999 0.328125,-0.4375 1.3125,-1.625 l -1.625,-3.4375 q -1.75,2.140625 -2.734375,4.296875 -0.796875,1.76562499 -1.125,2.76562499 -0.390625,1.20312501 -0.671875,2.87500001 -0.34375,-2.109375 -1,-3.78125001 -1.0625,-2.70312499 -2.0625,-4.20312499 -0.53125,-0.78125 -1.578125,-1.96875 l -1.65625,3.484375 q 1.5,1.75 2.53125,3.48437499 1.46875,2.42187501 2.75,6.73437501 0.265625,0.90625 0.5,1.875 z" /><path
     id="path272"
     style=""
     d="m -51.627502,-5.3718748 q -0.78125,-1.140625 -1.828125,-1.140625 -0.890625,0 -1.6875,0.765625 -0.125,0.140625 -0.65625,1 -1.921875,3.09375 -1.921875,5.20312499 v 0.234375 q 0,0.125 0.03125,0.25 l 0.03125,0.25000001 q 0.40625,1.046875 1.71875,1.671875 0.78125,0.359375 1.421875,0.359375 0.828125,0 1.09375,-0.578125 l 0.96875,-2.07812501 q 0,0.3125 -0.03125,0.81250001 -0.01563,0.625 -0.03125,0.796875 -0.01563,0.6875 0.265625,2.34375 0.5,2.9375 1.8125,5.5781248 l 2.4375,-3.2187498 -0.359375,-0.640625 q -0.8125,-1.4375 -1.375,-3.34375 -0.453125,-1.53125 -0.65625,-3.09375001 -0.171875,-1.32812499 -0.328125,-2.67187499 -0.25,-1.5625 -0.90625,-2.5 z m -1.21875,4.76562499 q -0.390625,0.3125 -0.859375,0.3125 -0.421875,0 -0.890625,-0.15625 -0.21875,-0.03125 -0.484375,-0.4375 -0.234375,-0.35937499 -0.28125,-0.60937499 -0.03125,-0.0625 -0.03125,-0.171875 0,-0.46875 0.4375,-1.234375 0.4375,-0.765625 0.84375,-1.03125 0.125,-0.09375 0.28125,-0.09375 0.5625,0 0.9375,1.078125 0.296875,0.84375 0.296875,1.546875 0,0.70312499 -0.25,0.82812499 z" /><path
     id="path274"
     style=""
     d="m -40.205627,10.190625 0.453125,-1.5468748 q 0.53125,-1.765625 0.984375,-3.09375 1,-3.046875 2.421875,-5.59375001 0.53125,-0.921875 1.125,-1.71874999 0.328125,-0.4375 1.3125,-1.625 l -1.625,-3.4375 q -1.75,2.140625 -2.734375,4.296875 -0.796875,1.76562499 -1.125,2.76562499 -0.390625,1.20312501 -0.671875,2.87500001 -0.34375,-2.109375 -1,-3.78125001 -1.0625,-2.70312499 -2.0625,-4.20312499 -0.53125,-0.78125 -1.578125,-1.96875 l -1.65625,3.484375 q 1.5,1.75 2.53125,3.48437499 1.46875,2.42187501 2.75,6.73437501 0.265625,0.90625 0.5,1.875 z" /><path
     id="path276"
     style=""
     d="m -26.346252,-4.2468748 -0.203125,0.03125 q -1.28125,0 -3.4375,-2.203125 l -0.40625,-0.421875 -1.609375,3.453125 q 1.859375,2.3125 3.0625,4.953125 0.71875,1.5625 1.078125,2.5625 1.109375,3.03125 1.109375,5.9531248 l 0.4375,-1.2812498 q 0.515625,-1.5 0.515625,-3.5625 0,-1.84375 -0.484375,-4.78125001 0,-0.3125 -0.34375,-1.15625 1.453125,0 2.234375,-0.67187499 0.703125,-0.625 1.09375,-1.734375 0.296875,-0.890625 0.296875,-1.859375 0,-0.8125 -0.15625,-1.328125 l -0.15625,-0.453125 q -0.625,2 -3.0625,2.46875 z" /><path
     id="path278"
     style=""
     d="m -10.205627,-0.63749981 q 1.7968746,-0.328125 1.7968746,-3.78124999 0,-0.71875 -0.0625,-1.203125 l -0.078125,-0.78125 -0.109375,0.375 q -0.546875,1.78125 -1.6249996,1.78125 h -0.1875 q -0.5625,-0.078125 -0.875,-0.625 -0.109375,-0.1875 -0.40625,-1.203125 l -0.140625,-0.515625 q -0.421875,2.0625 -2.265625,2.34375 -0.09375,0.03125 -0.296875,0.03125 -0.734375,0 -1.625,-0.546875 -0.609375,-0.375 -1.609375,-1.34375 l -0.40625,-0.40625 -1.625,3.4375 q 1.140625,1.4375 1.734375,2.39062499 1.296875,2.07812501 2.3125,4.96875001 0.953125,2.703125 1.203125,5.5625 l 0.375,-1.109375 q 0.53125,-1.625 0.53125,-3.828125 0,-2.078125 -0.4375,-4.12500001 l -0.21875,-1.015625 0.28125,0.03125 q 1.109375,0 1.75,-0.81249999 0.359375,-0.4375 0.59375,-0.765625 -0.109375,0.109375 -0.140625,0.125 0,-0.046875 -0.01563,-0.078125 0.71875,1.12499999 1.390625,1.12499999 h 0.109375 z" /><path
     id="path280"
     style=""
     d="M 65.200623,4.4406252 65.106873,10.08125 H 81.372498 V 4.5812502 q 0,-0.359375 0,-0.5625 -0.04687,-0.796875 -0.04687,-0.90625 0,-0.59375 -0.09375,-1.21875 -0.04687,-0.328125 -0.25,-1.21875001 l -1.3125,1.25000001 0.53125,2.546875 H 77.809998 V 0.50312519 L 76.575623,1.7375002 q 0.0625,0.5625 0.0625,0.609375 0,0.453125 -0.28125,0.953125 -0.484375,0.875 -1.390625,1.140625 H 71.763123 V 0.65937519 l -1.125,0.96875001 -0.25,1.375 q -0.125,0.453125 -0.203125,0.625 -0.375,0.8125 -1.203125,0.8125 z m 8.5,-5.5625 3.21875,-3.21875 1.625,1.609375 -1.625,1.609375 -3.21875,-3.21875 -1.640625,1.609375 z m 3.3125,-4.671875 -1.5625,-1.546875 -1.578125,1.546875 1.578125,1.578125 z" /><path
     id="path282"
     style=""
     d="m 54.544373,10.01875 h 1.84375 q 0.96875,0 1.390625,-0.5781248 0.328125,-0.453125 0.390625,-0.546875 0.171875,-0.296875 0.203125,-0.625 l 4.34375,3.8593748 0.328125,-2.109375 2.609375,0.03125 V 4.4093752 h -0.96875 l -0.0625,-0.484375 q -0.1875,-1.5625 -0.734375,-2.640625 -0.75,-1.54687501 -1.75,-1.54687501 -0.890625,0 -1.84375,1.26562501 -0.828125,1.109375 -1.640625,2.5 -0.453125,0.796875 -1,0.921875 -0.07813,0.015625 -1.484375,0.015625 h -1.625 z m 7.46875,-6.9999998 q 0.234375,0 0.65625,1.21875 0.4375,1.3125 0.40625,2.140625 l -0.03125,0.75 -2.65625,-2.21875 q 0,-0.390625 0.609375,-1.140625 0.625,-0.75 1.015625,-0.75 z" /><path
     id="path284"
     style=""
     d="m 55.013123,4.4093752 q -1.0625,-0.046875 -1.609375,-0.609375 -0.34375,-0.328125 -0.453125,-0.84375 -0.0625,-0.3125 -0.0625,-1.03125 v -8.890625 l -1.984375,2.5 v 9.515625 q 0,1.828125 1.015625,3.3125 0.40625,0.59375 1.109375,1.109375 0.8125,0.5781248 1.4375,0.5781248 h 0.546875 z" /><path
     id="path286"
     style=""
     d="m 41.372498,14.925 4.984375,1.625 0.0625,-0.109375 q 0.6875,-1.046875 1.203125,-2.140625 0.234375,-0.53125 0.53125,-1.328125 1.15625,-3.0156248 1.15625,-5.3593748 0,-2.265625 -1,-4.96875 -0.4375,-1.1875 -1.84375,-3.921875 l -0.109375,-0.125 -1.4375,3.171875 1.609375,2.15625 q 0.625,0.84375 0.625,1.78125 0,0.84375 -0.578125,2.140625 -0.78125,1.71875 -1.5625,2.9374998 -1.546875,2.375 -3.359375,3.9375 z" /><path
     id="path288"
     style=""
     d="M 40.153748,2.5656252 Q 39.934998,1.7687502 39.888123,1.6437502 39.481873,0.59687519 38.247498,-0.73124981 35.919373,-3.2624998 33.950623,-3.2624998 h -0.0625 l -0.8125,3.39062499 0.671875,0.328125 -0.09375,0.109375 q -1.25,1.87500001 -1.25,4.60937501 0,1.984375 0.53125,3.25 0.703125,1.6562498 2.4375,1.6562498 1.6875,0 3.484375,-1.9531248 0.84375,-0.90625 1.125,-1.625 l 0.203125,-0.515625 z m -1.53125,1.15625 q -0.09375,0.28125 -0.765625,0.796875 -0.84375,0.65625 -1.5625,0.65625 -1.046875,0 -1.46875,-1.234375 -0.1875,-0.578125 -0.1875,-1.234375 0,-0.71875 0.15625,-1.21875 l 0.125,-0.375 3.75,2.453125 z" /><path
     id="path290"
     style=""
     d="m 17.981873,10.05 h 6.4375 V 3.7218752 q 0,-2.375 -0.703125,-4.9375 l -1.46875,2.546875 q 0.484375,1.046875 0.5625,1.75 0.0625,0.40625 0.0625,0.734375 0,0.09375 -0.01563,0.296875 0,0.203125 0,0.296875 h -4.875 z m 1.828125,-11.8281248 3.21875,-3.203125 1.609375,1.59375 -1.609375,1.609375 -3.21875,-3.203125 -1.625,1.59375 z m 3.046875,-4.484375 -1.53125,-1.53125 -1.515625,1.53125 1.515625,1.546875 z" /><path
     id="path292"
     style=""
     d="m 17.653748,15.190625 -2.15625,-2.1875 -2.171875,2.1875 2.171875,2.140625 z M 10.888123,4.4093752 10.856873,10.05 h 4.390625 q 0.453125,0 0.921875,-0.5937498 0.46875,-0.609375 0.46875,-1.59375 0.01563,0.03125 0.03125,0.0625 0.125,0.96875 0.171875,1.125 0.328125,1.0312498 1.078125,1.0312498 h 0.546875 V 4.4406252 h -0.28125 q -0.171875,0 -0.484375,-0.484375 -0.3125,-0.484375 -0.3125,-1.671875 V 0.65937519 l -1.328125,1.03125001 -0.15625,0.421875 q -0.01563,0.046875 -0.1875,0.765625 -0.171875,0.703125 -0.53125,1.046875 -0.5,0.484375 -1.359375,0.484375 z" /><path
     id="path294"
     style=""
     d="m -2.7525024,10.05 9.890625,-0.03125 q 1.1875,0 1.765625,-0.6562498 0.296875,-0.359375 0.484375,-0.875 l 0.046875,-0.265625 q 0,0.59375 0.171875,0.921875 0.4375004,0.8749998 1.2343754,0.8749998 h 0.375 V 4.3781252 q -0.140625,0.015625 -0.21875,0.015625 -0.265625,0 -0.421875,-0.21875 -0.328125,-0.4375 -0.375,-1.234375 L 10.059998,0.36250019 8.4349976,1.6281252 7.8881226,3.3937502 q -0.25,0.78125 -1.0625,0.96875 -0.265625,0.046875 -0.578125,0.046875 h -8.09375 q -1.71875,0 -2.375,-0.75 -0.59375,-0.703125 -0.765625,-1.859375 l -0.140625,-0.92187501 -1.140625,1.21875001 v 4.28125 q 0,0.40625 0.25,1.15625 0.34375,1.015625 0.84375,1.515625 Q -4.1431274,10.05 -2.7525024,10.05 Z m 2.76562496,-13.2656248 3.56250004,-3.578125 1.8125,1.8125 -1.8125,1.765625 -3.56250004,-3.578125 -1.78124996,1.8125 z" /></g>
</g>
</svg>